<?xml version="1.0" encoding="utf-8"?>
<!-- Generator: Adobe Illustrator 16.0.0, SVG Export Plug-In . SVG Version: 6.00 Build 0)  -->
<!DOCTYPE svg PUBLIC "-//W3C//DTD SVG 1.1//EN" "http://www.w3.org/Graphics/SVG/1.1/DTD/svg11.dtd">
<svg version="1.1" id="Layer_1" xmlns="http://www.w3.org/2000/svg" xmlns:xlink="http://www.w3.org/1999/xlink" x="0px" y="0px"
	 width="828.735px" height="839px" viewBox="0 0 828.735 839" enable-background="new 0 0 828.735 839" xml:space="preserve">
<polygon fill="#FF0000" points="-8.136,404.737 -4.454,-11.741 411.985,-4.96 824.746,418.299 821.065,834.778 404.625,827.998 "/>
<path fill-rule="evenodd" clip-rule="evenodd" fill="#FEE101" stroke="#000000" stroke-width="10" stroke-miterlimit="10" d="
	M3513.795,815.821c0,220.528-178.764,399.281-399.281,399.281s-399.293-178.753-399.293-399.281
	c0-220.515,178.775-399.285,399.293-399.285S3513.795,595.307,3513.795,815.821z"/>
<path fill-rule="evenodd" clip-rule="evenodd" d="M3181.712,657.084c2.456-0.322,4.822-0.927,7.204-1.482
	c1.877-0.432,3.68-1.254,5.715-1.393c1.893-0.139,3.764-1.223,5.76-1.353c3.227-0.184,6.422-2.009,9.704-0.04
	c1.472,0.867,3.249,0.211,4.897,0.627c2.167,0.518,4.449,0.428,6.688,0.871c1.318,0.276,2.772,0.386,4.188,0.472
	c2.212,0.127,4.277,0.679,5.996,2.133c0.445,0.386,0.837,0.307,1.281,0.416c1.555,0.372,3.219,0.676,4.082,2.284
	c0.354,0.66,1.178,0.503,1.529,0.629c1.771,0.576,2.381,2.187,3.547,3.263c1.383,1.22,1.948,3.353,4.115,3.727
	c0.313,2.462,2.697,3.583,3.688,5.666c0.59,1.233,1.423,1.828,0.182,3.065c-1.797,1.798-2.81,1.967-5.02,0.031
	c-1.262-1.099-2.812-1.729-4.059-2.727c-1.142-0.903-2.584-1.144-3.629-2.17c-0.568-0.571-1.4-1.021-2.406-0.591
	c-1.135,0.463-1.94-0.688-3.049-0.854c-1.523-0.186-3.197-0.274-4.562-0.798c-2.921-1.106-6.142-0.585-8.966-1.839
	c-1.228-0.542-2.305,0.397-3.633-0.031c-1.534-0.511-3.338-0.217-5.029-0.265c-0.951-0.029-1.891,0-2.797,0.356
	c-0.155,0.062-0.351,0.156-0.51,0.125c-2.968-0.573-5.48,1.257-8.221,1.549c-2.452,0.24-4.812,1.315-7.267,0.96
	c-3.004-0.449-5.503,1.015-8.123,1.899c-1.391,0.483-2.841,0.629-4.206,1.17c-2.709,1.091-5.329,2.313-7.581,4.275
	c-0.633,0.561-1.607,0.841-2.459,1.116c-2.62,0.857-4.88,2.39-6.671,4.354c-1.652,1.811-3.829,2.682-5.725,4.062
	c-1.146,0.848-2.248,1.622-2.714,3.065c-0.1,0.323-0.531,0.594-0.862,0.796c-1.629,0.905-2.673,2.442-4.02,3.617
	c-1.166,1.028-2.318,2.087-3.225,3.269c-1.754,2.313-4.743,3.354-6.09,6.186c-0.353,0.742-1.5,1.842-2.775,2.013
	c-2.701,0.362-3.756-0.892-3.144-3.925c0.171-0.812,0.418-1.549,0.109-2.378c-0.081-0.213-0.132-0.595-0.024-0.671
	c1.486-0.947,1.43-2.651,1.486-3.986c0.066-2.085,2.645-3.616,1.198-5.979c-0.229-0.397,0.567-0.654,0.704-1.252
	c0.314-1.418,0.593-2.732,0.447-4.219c-0.195-1.978,1.415-3.34,2.125-5.028c1.322-3.2,2.547-6.468,4.158-9.565
	c0.562-1.088,1.47-1.84,2.053-2.881c2.227-3.941,5.893-6.666,8.742-10.066c1.913-2.273,4.551-3.714,6.31-6.058
	c1.005-1.351,2.435-2.133,3.673-3.139c2.106-1.721,4.17-3.496,6.426-4.994c1.335-0.882,2.889-1.448,4.252-2.382
	c1.479-0.998,3.123-1.871,4.836-2.395c2.908-0.885,5.809-1.822,8.82-2.372c1.949-0.336,3.82-0.935,5.785-1.239
	c3.76-0.574,7.396-1.974,11.295-1.335c0.275,0.062,0.594,0,0.852-0.099c3.551-1.357,6.932-0.116,10.328,0.65
	c1.574,0.34,2.883,1.44,4.684,1.237c1.299-0.138,2.51,0.813,2.413,2.146c-0.056,0.842-0.727,2.025-2.11,2.039
	c-0.688,0-0.866,0.909-1.59,0.988c-3.026,0.333-5.75,1.726-8.404,3.003c-1.533,0.702-3.596,0.921-4.557,2.695
	c-0.389,0.732-0.824-0.127-1.355,0.047c-1.27,0.414-2.268,1.242-3.38,1.835c-1.521,0.842-3.026,1.53-4.761,1.625
	c-1.008,0.061-1.008,1.23-1.776,1.561c-3.515,1.518-6.788,3.587-10.611,4.404c-1.521,0.336-2.958,1.071-4.396,1.669
	c-0.541,0.215-1.248,0.541-0.984,1.243C3180.508,657.305,3181.229,656.998,3181.712,657.084z"/>
<g>
	<path fill-rule="evenodd" clip-rule="evenodd" d="M2947.556,995.808c4.097,3.239,7.585,6.105,11.192,8.806
		c2.777,2.064,5.805,3.812,8.549,5.908c7.148,5.527,14.087,11.376,21.395,16.697c3.801,2.741,8.176,4.704,12.352,6.892
		c3.859,2.024,7.753,3.991,11.695,5.814c4.277,1.972,8.583,3.872,12.949,5.637c6.556,2.638,13.127,5.196,19.768,7.554
		c1.999,0.706,4.235,0.739,6.365,1.044c3.42,0.493,6.861,0.251,10.242,1.723c2.221,0.978,5.074,0.428,7.604,0.792
		c4.562,0.679,9.549,0.616,13.502,2.597c3.934,1.944,7.742-0.386,11.342,1.402c1.761,0.862,3.796,1.199,5.709,1.798
		c0.6,0.18,1.17,0.521,1.787,0.643c6.139,1.134,12.246,2.839,18.43,3.189c7.619,0.41,15.303-0.265,22.944-0.583
		c3.083-0.127,6.142-0.738,9.217-0.859c3.547-0.149,6.603-1.381,9.521-3.234c2.055-1.317,3.911-2.19,6.788-1.657
		c2.365,0.451,5.371,0.388,7.585-2.937c2.142-3.178,5.896-5.32,10.425-5.979c3.907-0.568,7.556-2.883,11.3-4.496
		c2.271-0.979,4.837-1.651,6.635-3.217c4.273-3.722,10.492-3.806,14.331-8.815c3.287-4.273,8.34-7.202,12.717-10.591
		c0.621-0.488,1.922-0.059,2.72-0.444c2.45-1.164,4.94-2.282,7.138-3.832c4.518-3.172,8.921-6.498,13.218-9.953
		c2.958-2.352,5.54-5.208,8.551-7.504c2.7-2.085,5.751-3.681,8.604-5.581c2.224-1.436,4.34-3.095,6.57-4.525
		c2.895-1.833,4.598-5.115,8.503-5.893c2.137-0.444,3.993-2.729,5.751-4.391c4.777-4.503,9.437-9.144,14.159-13.726
		c2.001-1.939,4.224-3.685,5.962-5.816c2.503-3.019,4.672-6.323,7.001-9.514c2.577-3.558,5.328-6.991,7.705-10.67
		c5.542-8.566,10.776-17.321,16.405-25.806c2.305-3.486,5.479-6.38,7.965-9.768c1.926-2.619,3.307-5.642,5.129-8.357
		c1.981-2.988,4.205-5.819,6.269-8.735c1.044-1.469,1.966-3.002,2.948-4.504c4.479-6.746,9.262-13.286,10.398-21.688
		c0.578-4.303,1.607-8.564,2.838-12.723c1.389-4.737,5.049-8.018,8.996-10.467c1.662-1.044,4.814-0.676,6.887,0.121
		c5.094,1.977,9.999,4.475,14.879,6.943c2.164,1.092,4.084,2.653,6.129,3.998c0.44,0.274,1.023,0.804,1.389,0.679
		c2.865-0.917,3.805,1.563,5.465,2.885c3.32,2.602,6.822,4.993,10.185,7.583c5.315,4.093,11.564,6.85,15.397,13.041
		c3.152,5.093,8.002,9.08,11.662,13.892c2.793,3.681,3.875,8.155,3.683,12.846c-0.036,0.963-0.426,1.958-0.304,2.878
		c0.459,3.6-1.463,5.629-4.492,6.715c-2.504,0.894-5.152,1.375-7.733,2.042c-0.304,0.078-0.7,0.042-0.897,0.239
		c-3.537,3.425-8.325,3.36-12.648,4.613c-4.826,1.415-9.994,2.24-14.292,4.632c-3.394,1.903-6.657,0.95-9.903,1.7
		c-0.732,0.17-1.484,0.232-2.204,0.398c-2.653,0.629-5.292,1.271-7.928,1.92c-4.285,1.026-8.616,1.884-12.776,3.188
		c-1.326,0.408-2.352,2.023-3.324,3.219c-3.738,4.624-7.293,9.42-11.141,13.96c-2.924,3.414-6.278,6.469-9.318,9.796
		c-2.76,3.019-5.24,6.318-8.071,9.251c-3.259,3.394-6.79,6.533-10.172,9.797c-1.022,0.965-1.966,2.012-2.94,3.021
		c-5.206,5.471-10.301,11.051-15.684,16.372c-1.845,1.836-4.419,2.942-6.578,4.519c-2.621,1.918-5.061,4.076-7.699,5.963
		c-5.627,4.032-11.387,7.861-16.971,11.971c-3.062,2.252-5.785,4.961-8.812,7.331c-1.524,1.191-3.358,2.023-5.031,3.065
		c-2.693,1.697-5.352,3.474-8.067,5.132c-2.812,1.748-5.705,3.373-8.51,5.089c-6.639,4.098-13.204,8.276-19.869,12.257
		c-3.121,1.875-6.527,3.238-9.688,5.031c-4.743,2.682-9.381,5.562-14.088,8.334c-0.521,0.306-1.239,0.266-1.788,0.523
		c-2.29,1.12-4.546,2.303-6.829,3.435c-3.041,1.532-6.122,3.005-9.168,4.582c-4.324,2.223-8.731,3.908-12.598,7.512
		c-4.021,3.742-10.088,5.271-15.258,7.773c-0.451,0.21-0.953,0.41-1.305,0.751c-4.545,4.334-10.354,5.854-16.107,7.803
		c-5.966,1.985-11.883,0.846-17.801,1.114c-5.881,0.273-11.716,0.663-17.576,0.906c-4.9,0.182-9.854,0.677-14.686,0.121
		c-1.934-0.209-4.025-0.731-6.055-0.897c-4.264-0.36-8.559-0.38-12.832-0.724c-4.481-0.371-8.968-1.042-13.455-1.475
		c-4.488-0.414-8.752-1.384-12.992-3.126c-3.242-1.345-7.193-0.906-10.594-1.991c-7.641-2.438-15.674-3.037-23.258-6.102
		c-7.176-2.896-14.455-5.871-21.921-7.954c-3.759-1.059-5.658-4.398-9.364-5.302c-2.639-0.626-4.885-2.777-7.498-3.787
		c-8.812-3.337-16.544-8.877-25.482-12.138c-5.188-1.888-9.639-5.85-14.324-9.014c-6.418-4.323-12.787-8.754-19.124-13.214
		c-3.219-2.264-6.292-4.735-9.472-7.047c-3.127-2.273-6.402-4.356-9.481-6.72c-3.563-2.723-7.222-5.428-10.423-8.551
		c-2.619-2.557-4.545-5.787-6.921-8.595c-0.993-1.168-2.367-2.015-3.608-2.944c-0.391-0.294-1.027-0.324-1.363-0.678
		c-4.002-4.214-8.101-8.366-11.93-12.732c-3.041-3.482-5.607-7.375-8.654-10.858c-2.885-3.307-6.197-6.267-9.182-9.496
		c-1.271-1.4-2.479-3.012-3.244-4.725c-2.307-5.183-7.22-8.137-10.33-12.599c-2.41-3.432-5.03-6.717-7.255-10.27
		c-2.966-4.749-5.54-9.748-8.479-14.512c-1.624-2.622-3.489-5.139-5.595-7.405c-0.495-0.521-2.676-0.181-3.518,0.478
		c-4.364,3.417-8.354,1.452-12.177-0.723c-4.627-2.664-6.577-7.466-8.737-12.047c-1.73-3.692-2.658-7.516-1.58-11.496
		c0.867-3.093,2.412-6.012,3.253-9.1c1.288-4.772,1.841-9.754,3.437-14.399c1.734-5.091,0.158-10.406,1.766-15.42
		c1.939-5.977,3.916-11.919,5.808-17.916c0.982-3.126,1.741-6.301,2.743-9.414c0.441-1.41,1.15-2.773,1.858-4.104
		c2.069-4.003,3.899-8.182,6.466-11.845c1.217-1.739,3.783-2.98,5.956-3.497c2.839-0.693,5.948-0.228,8.883-0.629
		c4.176-0.552,7.558,1.331,10.458,3.645c3.479,2.775,6.692,6.002,8.342,10.466c0.527,1.467,2.457,2.38,3.227,3.822
		c2.098,3.909,3.066,8.187,2.998,12.645c0,0.507-0.215,1.07-0.037,1.454c2.635,5.797,2.6,12.14,2.429,18.134
		c-0.105,3.877,0.665,8.616-2.499,12.19c-0.418,0.47-0.28,1.439-0.432,2.171c-0.666,3.647-1.494,7.268-1.902,10.945
		c-0.176,1.562,0.266,3.321,0.892,4.811c1.513,3.611,3.905,6.989,4.841,10.729c1.385,5.488,4.811,9.478,8.005,13.771
		c1.306,1.774,1.839,4.134,2.737,6.215c1.234,2.891,2.748,5.507,4.834,7.945c1.672,1.928,2.402,4.657,3.889,6.792
		c2.022,2.86,4.232,5.525,6.914,7.964c2.977,2.652,4.856,6.48,7.427,9.645c4.298,5.272,8.796,10.375,13.122,15.614
		c1.996,2.422,3.713,5.076,5.724,7.5c2.039,2.446,4.29,4.744,6.406,7.145c1.46,1.653,2.763,3.424,4.28,5.021
		c3.621,3.774,7.311,7.48,11.062,11.131C2946.553,996.132,2947.598,995.808,2947.556,995.808z"/>
	<path fill-rule="evenodd" clip-rule="evenodd" d="M3052.821,651.328c0.311,4.071,0.78,8.125,0.886,12.184
		c0.071,2.883-0.362,5.779-0.549,8.661c-0.189,3.252-0.367,6.518-0.552,9.775c-0.05,0.539,0.022,1.091-0.083,1.607
		c-0.778,3.805-2.352,7.636-2.207,11.394c0.188,4.674-0.914,8.752-3.48,12.307c-2.842,3.941-6.355,7.377-9.506,11.081
		c-3.529,4.136-8.582,4.097-13.114,3.863c-2.929-0.168-5.773-2.638-8.553-4.261c-1.415-0.828-2.536-2.204-3.921-3.126
		c-5.971-3.907-8.275-10.239-9.41-16.552c-1.271-7.128-1.834-14.622-1.122-21.798c0.823-8.121,1.325-16.611,4.843-24.124
		c1.953-4.172,3.121-8.568,4.975-12.708c0.898-2.02,3.13-3.416,4.564-5.24c1.594-2.059,3.272-4.142,4.375-6.472
		c1.922-4.062,5.658-5.944,9.119-8.047c1.973-1.189,4.484-1.776,6.82-2.021c5.554-0.594,8.45,3.495,10.619,7.479
		C3050.861,633.362,3052.533,642.227,3052.821,651.328z M3022.879,714.231c-0.068,0.381-0.143,0.734-0.207,1.099
		c2.102,0.356,4.235,1.122,6.287,0.925c3.014-0.294,5.532-3.341,5.335-5.657c5.274,0.952,7.79-5.503,9.86-12.753
		c-2.51,2.618-5.557,5.107-6.918,8.309c-0.869,2.07-1.471,2.343-3.299,2.711c-1.094,0.231-1.907,1.778-2.864,2.71
		c-0.474,0.462-0.901,1.183-1.468,1.323C3027.393,713.428,3025.121,713.812,3022.879,714.231z M3008.267,693.874
		c-0.531,0.213-1.084,0.434-1.609,0.664c0.812,1.959,1.624,3.92,2.44,5.9c0.404-0.155,0.801-0.327,1.221-0.478
		C3009.629,697.937,3008.957,695.915,3008.267,693.874z M3045.843,687.732c-3.197,2.771-2.808,5.181-1.097,8.515
		C3045.152,693.168,3045.447,690.841,3045.843,687.732z"/>
	<path fill-rule="evenodd" clip-rule="evenodd" d="M3022.879,714.231c2.242-0.419,4.514-0.804,6.727-1.333
		c0.566-0.14,0.994-0.861,1.468-1.323c0.957-0.932,1.771-2.479,2.864-2.71c1.828-0.369,2.43-0.641,3.299-2.711
		c1.361-3.201,4.408-5.69,6.918-8.309c-2.07,7.25-4.586,13.705-9.86,12.753c0.197,2.316-2.321,5.363-5.335,5.657
		c-2.052,0.197-4.186-0.568-6.287-0.925C3022.736,714.966,3022.811,714.612,3022.879,714.231z"/>
	<path fill-rule="evenodd" clip-rule="evenodd" d="M3008.267,693.874c0.69,2.041,1.362,4.063,2.052,6.086
		c-0.42,0.15-0.816,0.323-1.221,0.478c-0.816-1.98-1.629-3.941-2.44-5.9C3007.183,694.308,3007.735,694.087,3008.267,693.874z"/>
	<path fill-rule="evenodd" clip-rule="evenodd" d="M3045.843,687.732c-0.396,3.108-0.69,5.436-1.097,8.515
		C3043.035,692.914,3042.646,690.504,3045.843,687.732z"/>
</g>
<image overflow="visible" width="578" height="578" xlink:href="ECCF8EE6460E329A.jpg"  transform="matrix(0.2232 0.0016 -0.0016 0.2232 550.9521 682.1196)">
</image>
<g>
	<g>
		<g enable-background="new    ">
			<g>
				<polygon fill="#008000" points="686.59,462.985 675.49,471.47 652.231,450.268 663.331,441.783 				"/>
			</g>
			<g>
				<polygon fill="#008000" points="644.907,426.261 633.808,434.746 621.391,423.442 632.491,414.957 				"/>
			</g>
			<g>
				<polygon fill="#008000" points="618.976,402.64 607.876,411.125 595.399,399.754 606.499,391.269 				"/>
			</g>
			<g>
				<polygon fill="#008000" points="606.499,391.269 595.399,399.754 605.326,388.527 616.426,380.042 				"/>
			</g>
			<g>
				<polygon fill="#008000" points="670.76,476.444 659.66,484.929 638.568,465.712 649.668,457.227 				"/>
			</g>
			<g>
				<polygon fill="#008000" points="586.907,373.418 575.807,381.903 563.398,370.59 574.498,362.105 				"/>
			</g>
			<g>
				<polygon fill="#008000" points="702.496,536.617 691.396,545.102 729.669,501.83 740.77,493.345 				"/>
			</g>
			<g>
				<polygon fill="#00F000" points="740.77,493.345 754.285,505.663 725.939,537.708 745.727,555.739 735.8,566.966 
					702.496,536.617 				"/>
			</g>
			<g>
				<polygon fill="#008000" points="735.8,566.966 724.7,575.451 691.396,545.102 702.496,536.617 				"/>
			</g>
			<g>
				<polygon fill="#008000" points="560.984,349.796 549.884,358.281 537.407,346.911 548.507,338.426 				"/>
			</g>
			<g>
				<polygon fill="#008000" points="548.507,338.426 537.407,346.911 547.325,335.685 558.425,327.2 				"/>
			</g>
			<g>
				<polygon fill="#00F000" points="702.203,458.204 715.719,470.522 687.372,502.566 707.16,520.598 697.233,531.825 
					663.93,501.476 				"/>
			</g>
			<g>
				<polygon fill="#008000" points="697.233,531.825 686.134,540.31 652.83,509.96 663.93,501.476 				"/>
			</g>
			<g>
				<polygon fill="#008000" points="663.93,501.476 652.83,509.96 691.103,466.689 702.203,458.204 				"/>
			</g>
			<g>
				<polygon fill="#00F000" points="659.119,418.946 695.9,452.457 686.59,462.985 663.331,441.783 658.59,447.147 679.68,466.355 
					670.76,476.444 649.668,457.227 644.039,463.595 667.914,485.357 658.246,496.296 620.845,462.217 				"/>
			</g>
			<g>
				<polygon fill="#008000" points="620.845,462.217 609.745,470.702 648.019,427.431 659.119,418.946 				"/>
			</g>
			<g>
				<polygon fill="#008000" points="658.246,496.296 647.146,504.781 609.745,470.702 620.845,462.217 				"/>
			</g>
			<g>
				<polygon fill="#008000" points="520.334,335.312 509.234,343.797 529.977,319.876 541.077,311.391 				"/>
			</g>
			<g>
				<polygon fill="#008000" points="604.145,447.002 593.045,455.487 579.53,443.178 590.63,434.693 				"/>
			</g>
			<g>
				<polygon fill="#00F000" points="616.426,380.042 654.835,415.043 644.907,426.261 632.491,414.957 604.145,447.002 
					590.63,434.693 618.976,402.64 606.499,391.269 				"/>
			</g>
			<g>
				<polygon fill="#008000" points="590.63,434.693 579.53,443.178 607.876,411.125 618.976,402.64 				"/>
			</g>
			<g>
				<polygon fill="#008000" points="448.549,255.998 437.449,264.483 424.256,252.462 435.356,243.977 				"/>
			</g>
			<g>
				<polygon fill="#008000" points="467.133,294.227 456.033,302.711 463.524,285.953 474.625,277.468 				"/>
			</g>
			<g enable-background="new    ">
				<defs>
					<path id="SVGID_1_" enable-background="new    " d="M407.3,240.345c3.7-2.828,7.4-5.657,11.1-8.485
						c1.579-1.207,3.229-2.132,4.954-2.769c1.045-0.403,2.065-0.643,3.061-0.718c2.621-0.199,5.069,0.739,7.348,2.809
						c1.95,1.779,3.054,3.765,3.328,5.956c0.274,2.191-0.304,4.474-1.734,6.84l-11.1,8.485c1.43-2.366,2.008-4.648,1.734-6.84
						c-0.273-2.191-1.377-4.177-3.328-5.956c-2.279-2.07-4.727-3.007-7.348-2.809c-0.995,0.076-2.016,0.315-3.061,0.718
						C410.529,238.214,408.879,239.138,407.3,240.345z"/>
				</defs>
				<clipPath id="SVGID_2_">
					<use xlink:href="#SVGID_1_"  overflow="visible"/>
				</clipPath>
				<g clip-path="url(#SVGID_2_)" enable-background="new    ">
					<path fill="#008500" d="M435.356,243.977l-11.1,8.485c1.43-2.366,2.008-4.648,1.734-6.84c-0.273-2.191-1.377-4.177-3.328-5.956
						c-2.279-2.07-4.727-3.007-7.348-2.809c-0.995,0.076-2.016,0.315-3.061,0.718c-1.724,0.638-3.375,1.562-4.954,2.769l11.1-8.485
						c1.579-1.207,3.229-2.132,4.954-2.769c1.045-0.403,2.065-0.643,3.061-0.718c2.621-0.199,5.069,0.739,7.348,2.809
						c1.95,1.779,3.054,3.765,3.328,5.956C437.364,239.329,436.787,241.611,435.356,243.977"/>
				</g>
			</g>
			<g>
				<polygon fill="#00F000" points="558.425,327.2 596.834,362.192 586.907,373.418 574.498,362.105 546.144,394.159 
					532.628,381.842 560.984,349.796 548.507,338.426 				"/>
			</g>
			<g>
				<polygon fill="#008000" points="532.628,381.842 521.528,390.327 549.884,358.281 560.984,349.796 				"/>
			</g>
			<g>
				<polygon fill="#008000" points="546.144,394.159 535.044,402.644 521.528,390.327 532.628,381.842 				"/>
			</g>
			<g>
				<polygon fill="#008000" points="474.625,277.468 463.524,285.953 447.683,295.104 458.783,286.619 				"/>
			</g>
			<g>
				<polygon fill="#008000" points="369.411,172.783 358.311,181.268 351.264,174.846 362.364,166.361 				"/>
			</g>
			<g enable-background="new    ">
				<defs>
					<path id="SVGID_3_" enable-background="new    " d="M371.159,180.562l-11.1,8.485c2.02-2.286,1.438-4.873-1.749-7.779
						l11.101-8.485C372.597,175.69,373.179,178.277,371.159,180.562z"/>
				</defs>
				<clipPath id="SVGID_4_">
					<use xlink:href="#SVGID_3_"  overflow="visible"/>
				</clipPath>
				<g clip-path="url(#SVGID_4_)" enable-background="new    ">
					<path fill="#008500" d="M371.159,180.562l-11.1,8.485c2.02-2.286,1.438-4.873-1.749-7.779l11.101-8.485
						C372.597,175.69,373.179,178.277,371.159,180.562"/>
				</g>
			</g>
			<g enable-background="new    ">
				<defs>
					<path id="SVGID_5_" enable-background="new    " d="M370.519,181.164c-3.7,2.828-7.399,5.657-11.1,8.485
						c0.223-0.17,0.437-0.371,0.641-0.601l11.1-8.485C370.955,180.792,370.742,180.993,370.519,181.164z"/>
				</defs>
				<clipPath id="SVGID_6_">
					<use xlink:href="#SVGID_5_"  overflow="visible"/>
				</clipPath>
				<g clip-path="url(#SVGID_6_)" enable-background="new    ">
					<path fill="#008500" d="M370.519,181.164l-11.1,8.485c0.223-0.17,0.437-0.371,0.641-0.601l11.1-8.485
						C370.955,180.792,370.742,180.993,370.519,181.164"/>
				</g>
			</g>
			<g>
				<polygon fill="#008000" points="502.902,354.753 491.802,363.238 498.913,326.206 510.013,317.721 				"/>
			</g>
			<g>
				<polygon fill="#008000" points="515.899,366.602 504.799,375.086 491.802,363.238 502.902,354.753 				"/>
			</g>
			<g enable-background="new    ">
				<defs>
					<path id="SVGID_7_" enable-background="new    " d="M425.383,254.945l-11.1,8.485c0.312-0.239,0.626-0.494,0.942-0.765
						l11.1-8.485C426.01,254.452,425.695,254.707,425.383,254.945z"/>
				</defs>
				<clipPath id="SVGID_8_">
					<use xlink:href="#SVGID_7_"  overflow="visible"/>
				</clipPath>
				<g clip-path="url(#SVGID_8_)" enable-background="new    ">
					<path fill="#008500" d="M425.383,254.945l-11.1,8.485c0.312-0.239,0.626-0.494,0.942-0.765l11.1-8.485
						C426.01,254.452,425.695,254.707,425.383,254.945"/>
				</g>
			</g>
			<g enable-background="new    ">
				<defs>
					<path id="SVGID_9_" enable-background="new    " d="M384.547,191.794c-3.7,2.829-7.4,5.657-11.1,8.485
						c-1.801,1.376-3.858,2.152-6.171,2.327c-1.586,0.121-3.291-0.041-5.117-0.482l11.1-8.485c1.827,0.441,3.531,0.603,5.117,0.482
						C380.689,193.946,382.746,193.171,384.547,191.794z"/>
				</defs>
				<clipPath id="SVGID_10_">
					<use xlink:href="#SVGID_9_"  overflow="visible"/>
				</clipPath>
				<g clip-path="url(#SVGID_10_)" enable-background="new    ">
					<path fill="#008500" d="M384.547,191.794l-11.1,8.485c-1.801,1.376-3.858,2.152-6.171,2.327
						c-1.586,0.121-3.291-0.041-5.117-0.482l11.1-8.485c1.827,0.441,3.531,0.603,5.117,0.482
						C380.689,193.946,382.746,193.171,384.547,191.794"/>
				</g>
			</g>
			<g>
				<polygon fill="#008000" points="488.927,342.024 477.827,350.509 464.733,338.579 475.833,330.094 				"/>
			</g>
			<g>
				<polygon fill="#00F000" points="514.114,286.822 527.532,299.049 520.334,335.312 541.077,311.391 554.171,323.322 
					515.899,366.602 502.902,354.753 510.013,317.721 488.927,342.024 475.833,330.094 				"/>
			</g>
			<g>
				<polygon fill="#008000" points="475.833,330.094 464.733,338.579 503.015,295.307 514.114,286.822 				"/>
			</g>
			<g>
				<polygon fill="#008000" points="461.88,306.267 450.78,314.751 436.481,301.727 447.581,293.242 				"/>
			</g>
			<g>
				<polygon fill="#008000" points="472.393,326.957 461.293,335.442 447.483,322.86 458.583,314.375 				"/>
			</g>
			<g>
				<polygon fill="#008000" points="458.583,314.375 447.483,322.86 450.78,314.751 461.88,306.267 				"/>
			</g>
			<g>
				<polygon fill="#008000" points="447.581,293.242 436.481,301.727 428.9,305.924 440,297.439 				"/>
			</g>
			<g>
				<polygon fill="#008000" points="357.486,189.058 346.387,197.543 337.967,189.87 349.067,181.385 				"/>
			</g>
			<g>
				<polygon fill="#008000" points="440,297.439 428.9,305.924 415.121,293.377 426.221,284.892 				"/>
			</g>
			<g>
				<path fill="#00F000" d="M480.87,256.531l13.456,12.259l-21.934,58.167l-13.81-12.582l3.297-8.109l-14.299-13.025L440,297.439
					l-13.779-12.547L480.87,256.531z M467.133,294.227l7.492-16.758l-15.841,9.151L467.133,294.227"/>
			</g>
			<g enable-background="new    ">
				<defs>
					<path id="SVGID_11_" enable-background="new    " d="M358.972,197.857l-11.1,8.485c2.434-2.746,1.935-5.687-1.485-8.799
						l11.1-8.485C360.906,192.17,361.405,195.111,358.972,197.857z"/>
				</defs>
				<clipPath id="SVGID_12_">
					<use xlink:href="#SVGID_11_"  overflow="visible"/>
				</clipPath>
				<g clip-path="url(#SVGID_12_)" enable-background="new    ">
					<path fill="#008500" d="M358.972,197.857l-11.1,8.485c2.434-2.746,1.935-5.687-1.485-8.799l11.1-8.485
						C360.906,192.17,361.405,195.111,358.972,197.857"/>
				</g>
			</g>
			<g enable-background="new    ">
				<defs>
					<path id="SVGID_13_" enable-background="new    " d="M358.031,198.743c-3.7,2.829-7.4,5.657-11.1,8.485
						c0.323-0.247,0.636-0.542,0.94-0.887l11.1-8.485C358.667,198.201,358.354,198.497,358.031,198.743z"/>
				</defs>
				<clipPath id="SVGID_14_">
					<use xlink:href="#SVGID_13_"  overflow="visible"/>
				</clipPath>
				<g clip-path="url(#SVGID_14_)" enable-background="new    ">
					<path fill="#008500" d="M358.031,198.743l-11.1,8.485c0.323-0.247,0.636-0.542,0.94-0.887l11.1-8.485
						C358.667,198.201,358.354,198.497,358.031,198.743"/>
				</g>
			</g>
			<g enable-background="new    ">
				<defs>
					<path id="SVGID_15_" enable-background="new    " d="M437.126,268.808l-11.1,8.485c-3.784,2.892-8.042,4.575-12.766,5.048
						c-0.185,0.019-0.371,0.035-0.555,0.048c-7.25,0.551-14.148-2.165-20.695-8.13c-7.153-6.512-10.607-14.126-10.368-22.842
						c0.211-7.402,2.987-14.124,8.337-20.168c1.531-1.732,3.149-3.251,4.857-4.556c0.333-0.255,0.777-0.594,1.11-0.849
						c0.555-0.424,1.11-0.849,1.665-1.273c2.775-2.121,5.55-4.242,8.325-6.364c-1.708,1.306-3.327,2.824-4.857,4.557
						c-5.35,6.044-8.126,12.767-8.338,20.168c-0.238,8.715,3.215,16.33,10.369,22.842c6.547,5.965,13.446,8.681,20.695,8.13
						c0.185-0.014,0.371-0.03,0.556-0.048C429.084,273.383,433.343,271.7,437.126,268.808z"/>
				</defs>
				<clipPath id="SVGID_16_">
					<use xlink:href="#SVGID_15_"  overflow="visible"/>
				</clipPath>
				<g clip-path="url(#SVGID_16_)" enable-background="new    ">
					<path fill="#008500" d="M437.126,268.808l-11.1,8.485c-3.784,2.892-8.042,4.575-12.766,5.048
						c-0.185,0.019-0.371,0.035-0.555,0.048c-7.25,0.551-14.148-2.165-20.695-8.13c-7.153-6.512-10.607-14.126-10.368-22.842
						c0.211-7.402,2.987-14.124,8.337-20.168c1.531-1.732,3.149-3.251,4.857-4.556l11.101-8.485
						c-1.708,1.306-3.327,2.824-4.857,4.557c-5.35,6.044-8.126,12.767-8.338,20.168c-0.238,8.715,3.215,16.33,10.369,22.842
						c6.547,5.965,13.446,8.681,20.695,8.13c0.185-0.014,0.371-0.03,0.556-0.048C429.084,273.383,433.343,271.7,437.126,268.808"/>
				</g>
			</g>
			<g>
				<path fill="#00F000" d="M421.519,212.312c7.971-0.606,15.336,2.172,22.099,8.328c6.194,5.648,9.426,12.387,9.687,20.226
					c0.215,5.728-1.37,10.772-4.755,15.133l-13.192-12.021c1.43-2.366,2.008-4.648,1.734-6.84c-0.274-2.191-1.377-4.177-3.328-5.956
					c-2.279-2.07-4.727-3.007-7.348-2.809c-0.996,0.076-2.016,0.315-3.061,0.718c-3.098,1.146-5.959,3.218-8.596,6.193
					c-2.799,3.174-4.535,6.33-5.192,9.466c-0.9,4.1,0.145,7.518,3.135,10.243c2.087,1.9,4.29,2.764,6.609,2.588
					c2.232-0.17,4.57-1.302,7.017-3.4l13.486,12.293c-4.417,4.332-9.574,6.794-15.451,7.383c-0.185,0.019-0.371,0.035-0.556,0.048
					c-7.249,0.551-14.148-2.165-20.695-8.13c-7.154-6.512-10.607-14.126-10.369-22.842c0.212-7.402,2.988-14.124,8.338-20.168
					c5.474-6.196,12.082-9.659,19.815-10.399C421.103,212.345,421.312,212.327,421.519,212.312z"/>
			</g>
			<g>
				<polygon fill="#008000" points="314.65,153.172 303.551,161.657 327.1,135.024 338.2,126.54 				"/>
			</g>
			<g enable-background="new    ">
				<defs>
					<path id="SVGID_17_" enable-background="new    " d="M312.53,155.178c-3.7,2.829-7.4,5.657-11.1,8.485
						c0.709-0.542,1.416-1.211,2.12-2.006l11.1-8.485C313.946,153.967,313.24,154.636,312.53,155.178z"/>
				</defs>
				<clipPath id="SVGID_18_">
					<use xlink:href="#SVGID_17_"  overflow="visible"/>
				</clipPath>
				<g clip-path="url(#SVGID_18_)" enable-background="new    ">
					<path fill="#008500" d="M312.53,155.178l-11.1,8.485c0.709-0.542,1.416-1.211,2.12-2.006l11.1-8.485
						C313.946,153.967,313.24,154.636,312.53,155.178"/>
				</g>
			</g>
			<g>
				<polygon fill="#008000" points="288.734,127.667 277.634,136.151 300.265,110.57 311.365,102.085 				"/>
			</g>
			<g>
				<polygon fill="#008000" points="254.05,78.779 242.95,87.264 229.759,75.243 240.858,66.758 				"/>
			</g>
			<g enable-background="new    ">
				<defs>
					<path id="SVGID_19_" enable-background="new    " d="M368.715,213.968c-3.7,2.828-7.4,5.657-11.1,8.485
						c-2.403,1.837-5.049,2.865-7.933,3.084c-1.431,0.108-2.919,0.019-4.467-0.271c-4.06-0.753-8.541-3.365-13.432-7.828l11.1-8.485
						c4.891,4.463,9.372,7.075,13.431,7.828c1.548,0.289,3.037,0.379,4.467,0.271C363.667,216.833,366.312,215.805,368.715,213.968z
						"/>
				</defs>
				<clipPath id="SVGID_20_">
					<use xlink:href="#SVGID_19_"  overflow="visible"/>
				</clipPath>
				<g clip-path="url(#SVGID_20_)" enable-background="new    ">
					<path fill="#008500" d="M368.715,213.968l-11.1,8.485c-2.403,1.837-5.049,2.865-7.933,3.084
						c-1.431,0.108-2.919,0.019-4.467-0.271c-4.06-0.753-8.541-3.365-13.432-7.828l11.1-8.485c4.891,4.463,9.372,7.075,13.431,7.828
						c1.548,0.289,3.037,0.379,4.467,0.271C363.667,216.833,366.312,215.805,368.715,213.968"/>
				</g>
			</g>
			<g enable-background="new    ">
				<defs>
					<path id="SVGID_21_" enable-background="new    " d="M212.799,63.136c3.7-2.828,7.399-5.656,11.1-8.485
						c1.583-1.21,3.236-2.136,4.957-2.779c1.045-0.403,2.065-0.643,3.06-0.718c2.622-0.199,5.07,0.74,7.351,2.818
						c1.951,1.778,3.063,3.764,3.328,5.956c0.273,2.191-0.306,4.465-1.735,6.831l-11.1,8.485c1.43-2.365,2.009-4.64,1.735-6.831
						c-0.265-2.192-1.377-4.177-3.328-5.956c-2.281-2.078-4.729-3.017-7.351-2.818c-0.995,0.076-2.014,0.315-3.059,0.718
						C216.035,61,214.381,61.926,212.799,63.136z"/>
				</defs>
				<clipPath id="SVGID_22_">
					<use xlink:href="#SVGID_21_"  overflow="visible"/>
				</clipPath>
				<g clip-path="url(#SVGID_22_)" enable-background="new    ">
					<path fill="#008500" d="M240.858,66.758l-11.1,8.485c1.43-2.365,2.009-4.64,1.735-6.831c-0.265-2.192-1.377-4.177-3.328-5.956
						c-2.281-2.078-4.729-3.017-7.351-2.818c-0.995,0.076-2.014,0.315-3.059,0.718c-1.721,0.643-3.375,1.569-4.958,2.779l11.1-8.485
						c1.583-1.21,3.236-2.136,4.957-2.779c1.045-0.403,2.065-0.643,3.06-0.718c2.622-0.199,5.07,0.74,7.351,2.818
						c1.951,1.778,3.063,3.764,3.328,5.956C242.867,62.118,242.288,64.393,240.858,66.758"/>
				</g>
			</g>
			<g>
				<polygon fill="#008000" points="342.884,208.954 331.784,217.438 308.615,196.327 319.715,187.842 				"/>
			</g>
			<g>
				<polygon fill="#008000" points="319.715,187.842 308.615,196.327 346.888,153.056 357.988,144.571 				"/>
			</g>
			<g>
				<path fill="#00F000" d="M388.86,175.739c1.025,2.384,1.313,4.86,0.875,7.435c-0.439,2.575-1.535,4.862-3.291,6.842
					c-2.209,2.499-4.898,3.866-8.068,4.106c-1.585,0.121-3.29-0.041-5.117-0.482l0.437,0.903c2.975,6.188,2.261,11.782-2.153,16.765
					c-3.107,3.522-6.697,5.436-10.76,5.745c-1.431,0.108-2.919,0.019-4.467-0.271c-4.06-0.753-8.54-3.365-13.431-7.828
					l-23.169-21.111l38.273-43.271l22.258,20.28C384.646,168.86,387.518,172.486,388.86,175.739z M358.972,197.857
					c2.434-2.746,1.935-5.687-1.485-8.799l-8.419-7.673l-7.15,8.089l8.448,7.698c1.961,1.785,3.747,2.616,5.355,2.494
					C356.9,199.577,357.985,198.974,358.972,197.857 M371.159,180.562c2.02-2.286,1.438-4.873-1.748-7.779l-7.047-6.422
					l-5.864,6.627l7.634,6.957c1.304,1.186,2.581,1.83,3.833,1.939c0.228,0.021,0.45,0.022,0.666,0.005
					C369.599,181.816,370.438,181.376,371.159,180.562"/>
			</g>
			<g enable-background="new    ">
				<defs>
					<path id="SVGID_23_" enable-background="new    " d="M230.902,77.722c-3.7,2.828-7.4,5.656-11.1,8.485
						c0.307-0.235,0.616-0.485,0.926-0.751l11.101-8.485C231.518,77.236,231.209,77.487,230.902,77.722z"/>
				</defs>
				<clipPath id="SVGID_24_">
					<use xlink:href="#SVGID_23_"  overflow="visible"/>
				</clipPath>
				<g clip-path="url(#SVGID_24_)" enable-background="new    ">
					<path fill="#008500" d="M230.902,77.722l-11.1,8.485c0.307-0.235,0.616-0.485,0.926-0.751l11.101-8.485
						C231.518,77.236,231.209,77.487,230.902,77.722"/>
				</g>
			</g>
			<g>
				<path fill="#00F000" d="M311.365,102.085l13.516,12.318l-23.559,26.633c-1.957,2.218-2.949,4.255-2.95,6.12
					c-0.026,2.419,1.226,4.786,3.763,7.091c2.111,1.928,4.2,2.813,6.265,2.656c2.106-0.16,4.19-1.404,6.25-3.731l23.55-26.632
					l13.516,12.318l-22.739,25.713c-2.784,3.146-5.348,5.438-7.692,6.873c-2.345,1.427-4.919,2.3-7.734,2.604
					c-0.149,0.015-0.298,0.028-0.448,0.039c-6.538,0.497-13.472-2.599-20.821-9.297c-7.948-7.237-11.714-14.506-11.296-21.79
					c0.154-2.608,0.811-5.048,1.961-7.321c1.151-2.273,3.074-4.943,5.788-8.013L311.365,102.085z"/>
			</g>
			<g enable-background="new    ">
				<defs>
					<path id="SVGID_25_" enable-background="new    " d="M323.152,170.155c-3.146,2.404-6.29,4.808-9.436,7.212
						c-0.166,0.127-0.388,0.297-0.555,0.424c-0.333,0.254-0.777,0.594-1.11,0.849c-0.637,0.487-1.259,0.917-1.867,1.289
						c-2.345,1.427-4.919,2.3-7.733,2.604c-0.149,0.015-0.299,0.028-0.448,0.039c-6.537,0.497-13.472-2.599-20.821-9.297
						c-7.947-7.237-11.714-14.506-11.296-21.79c0.154-2.608,0.811-5.048,1.961-7.321c1.151-2.273,3.074-4.943,5.788-8.013
						l11.1-8.485c-2.714,3.069-4.637,5.74-5.788,8.013c-1.15,2.273-1.807,4.713-1.961,7.321c-0.418,7.284,3.348,14.553,11.296,21.79
						c7.349,6.698,14.283,9.794,20.821,9.297c0.149-0.011,0.299-0.024,0.448-0.039c2.814-0.304,5.389-1.177,7.734-2.604
						C321.893,171.072,322.515,170.642,323.152,170.155z"/>
				</defs>
				<clipPath id="SVGID_26_">
					<use xlink:href="#SVGID_25_"  overflow="visible"/>
				</clipPath>
				<g clip-path="url(#SVGID_26_)" enable-background="new    ">
					<path fill="#008500" d="M323.152,170.155l-11.101,8.485c-0.637,0.487-1.259,0.917-1.867,1.289
						c-2.345,1.427-4.919,2.3-7.733,2.604c-0.149,0.015-0.299,0.028-0.448,0.039c-6.537,0.497-13.472-2.599-20.821-9.297
						c-7.947-7.237-11.714-14.506-11.296-21.79c0.154-2.608,0.811-5.048,1.961-7.321c1.151-2.273,3.074-4.943,5.788-8.013
						l11.1-8.485c-2.714,3.069-4.637,5.74-5.788,8.013c-1.15,2.273-1.807,4.713-1.961,7.321c-0.418,7.284,3.348,14.553,11.296,21.79
						c7.349,6.698,14.283,9.794,20.821,9.297c0.149-0.011,0.299-0.024,0.448-0.039c2.814-0.304,5.389-1.177,7.734-2.604
						C321.893,171.072,322.515,170.642,323.152,170.155"/>
				</g>
			</g>
			<g>
				<polygon fill="#00F000" points="273.446,67.538 286.962,79.855 258.616,111.909 278.403,129.932 268.477,141.158 
					235.173,110.81 				"/>
			</g>
			<g>
				<polygon fill="#008000" points="235.173,110.81 224.073,119.294 262.346,76.023 273.446,67.538 				"/>
			</g>
			<g>
				<polygon fill="#008000" points="268.477,141.158 257.377,149.643 224.073,119.294 235.173,110.81 				"/>
			</g>
			<g enable-background="new    ">
				<defs>
					<path id="SVGID_27_" enable-background="new    " d="M242.616,91.6c-3.7,2.829-7.4,5.657-11.1,8.485
						c-3.778,2.888-8.027,4.572-12.752,5.046c-0.177,0.017-0.353,0.032-0.529,0.046c-7.26,0.551-14.167-2.155-20.722-8.127
						c-7.145-6.513-10.607-14.126-10.369-22.842c0.21-7.411,2.986-14.133,8.336-20.177c1.53-1.729,3.149-3.247,4.856-4.551
						c0.166-0.127,0.388-0.297,0.555-0.424c3.515-2.687,7.03-5.374,10.545-8.061c-1.707,1.305-3.326,2.822-4.855,4.551
						c-5.35,6.044-8.126,12.767-8.336,20.177c-0.239,8.715,3.223,16.329,10.369,22.842c6.555,5.973,13.461,8.679,20.722,8.127
						c0.176-0.014,0.353-0.029,0.528-0.046C234.59,96.172,238.838,94.487,242.616,91.6z"/>
				</defs>
				<clipPath id="SVGID_28_">
					<use xlink:href="#SVGID_27_"  overflow="visible"/>
				</clipPath>
				<g clip-path="url(#SVGID_28_)" enable-background="new    ">
					<path fill="#008500" d="M242.616,91.6l-11.1,8.485c-3.778,2.888-8.027,4.572-12.752,5.046
						c-0.177,0.017-0.353,0.032-0.529,0.046c-7.26,0.551-14.167-2.155-20.722-8.127c-7.145-6.513-10.607-14.126-10.369-22.842
						c0.21-7.411,2.986-14.133,8.336-20.177c1.53-1.729,3.149-3.247,4.856-4.551l11.1-8.485c-1.707,1.305-3.325,2.822-4.855,4.551
						c-5.35,6.044-8.126,12.767-8.336,20.177c-0.239,8.715,3.223,16.329,10.369,22.842c6.555,5.973,13.461,8.679,20.722,8.127
						c0.176-0.014,0.353-0.029,0.528-0.046C234.59,96.172,238.838,94.487,242.616,91.6"/>
				</g>
			</g>
			<g>
				<path fill="#00F000" d="M226.991,35.095c7.991-0.607,15.367,2.17,22.129,8.333c6.194,5.639,9.426,12.387,9.687,20.226
					c0.216,5.728-1.369,10.772-4.756,15.125l-13.192-12.021c1.43-2.365,2.009-4.64,1.735-6.831
					c-0.265-2.192-1.377-4.177-3.328-5.956c-2.281-2.078-4.729-3.017-7.351-2.818c-0.995,0.076-2.015,0.315-3.06,0.718
					c-3.088,1.154-5.958,3.218-8.595,6.201c-2.799,3.166-4.535,6.321-5.192,9.458c-0.9,4.108,0.146,7.526,3.135,10.252
					c2.086,1.899,4.288,2.76,6.605,2.584c2.232-0.17,4.573-1.302,7.021-3.396l13.485,12.284c-4.417,4.332-9.564,6.801-15.451,7.391
					c-0.176,0.017-0.353,0.032-0.528,0.046c-7.261,0.551-14.167-2.155-20.722-8.127c-7.146-6.513-10.607-14.126-10.369-22.842
					c0.21-7.411,2.986-14.133,8.336-20.177c5.475-6.188,12.082-9.66,19.815-10.399C226.595,35.127,226.793,35.11,226.991,35.095z"/>
			</g>
		</g>
	</g>
</g>
<g>
	<g>
		<g enable-background="new    ">
			<g enable-background="new    ">
				<defs>
					<path id="SVGID_29_" enable-background="new    " d="M503.579,446.521l-11.1,8.485c0.308-3.351-0.88-6.32-3.557-8.918
						l11.1-8.485C502.698,440.201,503.887,443.17,503.579,446.521z"/>
				</defs>
				<clipPath id="SVGID_30_">
					<use xlink:href="#SVGID_29_"  overflow="visible"/>
				</clipPath>
				<g clip-path="url(#SVGID_30_)" enable-background="new    ">
					<path fill="#008500" d="M503.579,446.521l-11.1,8.485c0.308-3.351-0.88-6.32-3.557-8.918l11.1-8.485
						C502.698,440.201,503.887,443.17,503.579,446.521"/>
				</g>
			</g>
			<g>
				<polygon fill="#008000" points="542.627,501.677 531.527,510.162 552.279,486.241 563.379,477.756 				"/>
			</g>
			<g enable-background="new    ">
				<defs>
					<path id="SVGID_31_" enable-background="new    " d="M473.091,446.287c3.7-2.829,7.4-5.657,11.1-8.485
						c1.994-1.524,4.059-2.532,6.191-3.025c0.551-0.13,1.095-0.215,1.632-0.256c2.844-0.216,5.512,0.812,8.008,3.083l-11.1,8.485
						c-2.497-2.271-5.165-3.298-8.009-3.083c-0.537,0.041-1.081,0.126-1.631,0.256C477.149,443.755,475.085,444.763,473.091,446.287
						z"/>
				</defs>
				<clipPath id="SVGID_32_">
					<use xlink:href="#SVGID_31_"  overflow="visible"/>
				</clipPath>
				<g clip-path="url(#SVGID_32_)" enable-background="new    ">
					<path fill="#008500" d="M500.021,437.603l-11.1,8.485c-2.497-2.271-5.165-3.298-8.009-3.083
						c-0.537,0.041-1.081,0.126-1.631,0.256c-2.133,0.494-4.197,1.501-6.191,3.026l11.1-8.485c1.994-1.524,4.059-2.532,6.191-3.025
						c0.551-0.13,1.095-0.215,1.632-0.256C494.857,434.304,497.525,435.332,500.021,437.603"/>
				</g>
			</g>
			<g>
				<polygon fill="#008000" points="452.699,397.178 441.6,405.663 429.182,394.35 440.282,385.865 				"/>
			</g>
			<g enable-background="new    ">
				<defs>
					<path id="SVGID_33_" enable-background="new    " d="M493.818,461.231c-3.145,2.404-6.29,4.808-9.435,7.212
						c-0.555,0.424-1.11,0.849-1.665,1.273c1.523-1.164,3.084-2.65,4.683-4.459c3.08-3.481,4.778-6.901,5.077-10.251l11.1-8.485
						c-0.299,3.35-1.997,6.771-5.077,10.251C496.902,458.581,495.341,460.066,493.818,461.231z"/>
				</defs>
				<clipPath id="SVGID_34_">
					<use xlink:href="#SVGID_33_"  overflow="visible"/>
				</clipPath>
				<g clip-path="url(#SVGID_34_)" enable-background="new    ">
					<path fill="#008500" d="M493.818,461.231l-11.1,8.485c1.523-1.164,3.084-2.65,4.683-4.459c3.08-3.481,4.778-6.901,5.077-10.251
						l11.1-8.485c-0.299,3.35-1.997,6.771-5.077,10.251C496.902,458.581,495.341,460.066,493.818,461.231"/>
				</g>
			</g>
			<g>
				<polygon fill="#008000" points="414.29,362.185 403.19,370.67 413.117,359.444 424.217,350.959 				"/>
			</g>
			<g>
				<polygon fill="#008000" points="426.766,373.547 415.666,382.032 403.19,370.67 414.29,362.185 				"/>
			</g>
			<g>
				<polygon fill="#008000" points="538.201,532.967 527.101,541.452 514.104,529.603 525.204,521.118 				"/>
			</g>
			<g>
				<polygon fill="#008000" points="525.204,521.118 514.104,529.603 521.215,492.57 532.315,484.085 				"/>
			</g>
			<g>
				<polygon fill="#008000" points="407.488,364.629 396.388,373.114 383.196,361.093 394.296,352.608 				"/>
			</g>
			<g>
				<polygon fill="#008000" points="511.229,508.39 500.128,516.875 487.035,504.944 498.135,496.459 				"/>
			</g>
			<g>
				<polygon fill="#008000" points="498.135,496.459 487.035,504.944 525.308,461.672 536.408,453.188 				"/>
			</g>
			<g>
				<polygon fill="#00F000" points="536.408,453.188 549.825,465.414 542.627,501.677 563.379,477.756 576.473,489.686 
					538.201,532.967 525.204,521.118 532.315,484.085 511.229,508.39 498.135,496.459 				"/>
			</g>
			<g enable-background="new    ">
				<defs>
					<path id="SVGID_35_" enable-background="new    " d="M366.24,348.98c3.7-2.828,7.4-5.657,11.1-8.485
						c1.579-1.207,3.229-2.131,4.953-2.773c1.045-0.403,2.064-0.643,3.059-0.719c2.622-0.199,5.07,0.741,7.351,2.817
						c1.951,1.778,3.054,3.765,3.327,5.956c0.274,2.191-0.305,4.466-1.734,6.831l-11.1,8.485c1.43-2.365,2.008-4.64,1.734-6.831
						c-0.273-2.191-1.377-4.177-3.327-5.956c-2.281-2.077-4.729-3.017-7.352-2.817c-0.995,0.076-2.014,0.315-3.059,0.719
						C369.47,346.85,367.819,347.773,366.24,348.98z"/>
				</defs>
				<clipPath id="SVGID_36_">
					<use xlink:href="#SVGID_35_"  overflow="visible"/>
				</clipPath>
				<g clip-path="url(#SVGID_36_)" enable-background="new    ">
					<path fill="#008500" d="M394.296,352.608l-11.1,8.485c1.43-2.365,2.008-4.64,1.734-6.831c-0.273-2.191-1.377-4.177-3.327-5.956
						c-2.281-2.077-4.729-3.017-7.352-2.817c-0.995,0.076-2.014,0.315-3.059,0.719c-1.723,0.642-3.374,1.566-4.953,2.773l11.1-8.485
						c1.579-1.207,3.229-2.131,4.953-2.773c1.045-0.403,2.064-0.643,3.059-0.719c2.622-0.199,5.07,0.741,7.351,2.817
						c1.951,1.778,3.054,3.765,3.327,5.956C396.305,347.968,395.726,350.243,394.296,352.608"/>
				</g>
			</g>
			<g>
				<polygon fill="#008000" points="364.902,315.922 353.802,324.407 330.536,303.215 341.636,294.73 				"/>
			</g>
			<g enable-background="new    ">
				<defs>
					<path id="SVGID_37_" enable-background="new    " d="M384.337,363.573c-3.7,2.828-7.4,5.657-11.1,8.485
						c0.308-0.235,0.618-0.486,0.929-0.753l11.1-8.485C384.954,363.087,384.645,363.338,384.337,363.573z"/>
				</defs>
				<clipPath id="SVGID_38_">
					<use xlink:href="#SVGID_37_"  overflow="visible"/>
				</clipPath>
				<g clip-path="url(#SVGID_38_)" enable-background="new    ">
					<path fill="#008500" d="M384.337,363.573l-11.1,8.485c0.308-0.235,0.618-0.486,0.929-0.753l11.1-8.485
						C384.954,363.087,384.645,363.338,384.337,363.573"/>
				</g>
			</g>
			<g>
				<path fill="#00F000" d="M519.923,445.492c1.176,8.707-1.558,16.817-8.218,24.343c-5.567,6.302-12.017,9.852-19.338,10.657
					c-0.297,0.032-0.594,0.06-0.889,0.082c-7.957,0.604-15.324-2.193-22.109-8.378c-7.341-6.694-10.99-14.4-10.937-23.129
					c0.043-7.255,2.801-13.976,8.275-20.172c5.911-6.684,12.512-10.303,19.791-10.856c0.729-0.055,1.464-0.081,2.207-0.074
					c7.546,0.087,14.584,3.092,21.104,9.038C515.591,432.272,518.96,438.438,519.923,445.492z M503.579,446.521
					c0.308-3.351-0.88-6.32-3.557-8.918c-2.496-2.271-5.164-3.298-8.008-3.083c-0.537,0.041-1.081,0.126-1.632,0.256
					c-3.444,0.797-6.711,2.936-9.791,6.426c-3.744,4.227-5.597,8.292-5.578,12.207c0.008,2.952,1.309,5.601,3.886,7.947
					c2.425,2.211,4.997,3.215,7.708,3.009c3.699-0.281,7.664-2.81,11.893-7.594C501.582,453.291,503.279,449.871,503.579,446.521"/>
			</g>
			<g enable-background="new    ">
				<defs>
					<path id="SVGID_39_" enable-background="new    " d="M506.479,474.747c-3.7,2.829-7.4,5.657-11.101,8.485
						c-4.272,3.266-8.978,5.18-14.112,5.745c-0.296,0.032-0.593,0.06-0.888,0.082c-7.957,0.604-15.324-2.193-22.109-8.378
						c-7.341-6.694-10.99-14.4-10.937-23.129c0.043-7.255,2.802-13.976,8.275-20.172c1.782-2.016,3.628-3.752,5.535-5.211
						c3.7-2.828,7.4-5.656,11.1-8.485c-1.908,1.458-3.753,3.195-5.536,5.211c-5.474,6.196-8.232,12.917-8.275,20.172
						c-0.053,8.729,3.596,16.435,10.937,23.129c6.786,6.185,14.152,8.983,22.109,8.378c0.295-0.022,0.592-0.05,0.889-0.082
						C497.501,479.928,502.206,478.014,506.479,474.747z"/>
				</defs>
				<clipPath id="SVGID_40_">
					<use xlink:href="#SVGID_39_"  overflow="visible"/>
				</clipPath>
				<g clip-path="url(#SVGID_40_)" enable-background="new    ">
					<path fill="#008500" d="M506.479,474.747l-11.101,8.485c-4.272,3.267-8.978,5.181-14.112,5.746
						c-0.296,0.032-0.593,0.06-0.888,0.082c-7.957,0.604-15.324-2.193-22.109-8.378c-7.341-6.694-10.99-14.4-10.937-23.129
						c0.043-7.255,2.802-13.976,8.275-20.172c1.782-2.016,3.628-3.752,5.535-5.211l11.1-8.485c-1.908,1.458-3.753,3.195-5.536,5.211
						c-5.474,6.196-8.232,12.917-8.275,20.172c-0.053,8.729,3.596,16.435,10.937,23.129c6.786,6.185,14.152,8.983,22.109,8.378
						c0.295-0.022,0.592-0.05,0.889-0.082C497.501,479.928,502.206,478.014,506.479,474.747"/>
				</g>
			</g>
			<g>
				<polygon fill="#008000" points="442.153,445.452 431.053,453.937 417.537,441.619 428.637,433.134 				"/>
			</g>
			<g>
				<polygon fill="#008000" points="428.637,433.134 417.537,441.619 455.81,398.348 466.91,389.863 				"/>
			</g>
			<g>
				<polygon fill="#00F000" points="466.91,389.863 480.426,402.181 442.153,445.452 428.637,433.134 				"/>
			</g>
			<g>
				<polygon fill="#008000" points="349.072,329.382 337.972,337.867 316.881,318.649 327.98,310.164 				"/>
			</g>
			<g>
				<polygon fill="#00F000" points="424.217,350.959 462.617,385.952 452.699,397.178 440.282,385.865 411.937,417.919 
					398.421,405.601 426.766,373.547 414.29,362.185 				"/>
			</g>
			<g>
				<polygon fill="#008000" points="411.937,417.919 400.836,426.404 387.321,414.086 398.421,405.601 				"/>
			</g>
			<g>
				<polygon fill="#008000" points="398.421,405.601 387.321,414.086 415.666,382.032 426.766,373.547 				"/>
			</g>
			<g enable-background="new    ">
				<defs>
					<path id="SVGID_41_" enable-background="new    " d="M227.469,194.935l-11.1,8.485c0.298-3.35-0.89-6.319-3.564-8.907
						l11.1-8.485C226.579,188.616,227.768,191.585,227.469,194.935z"/>
				</defs>
				<clipPath id="SVGID_42_">
					<use xlink:href="#SVGID_41_"  overflow="visible"/>
				</clipPath>
				<g clip-path="url(#SVGID_42_)" enable-background="new    ">
					<path fill="#008500" d="M227.469,194.935l-11.1,8.485c0.298-3.35-0.89-6.319-3.564-8.907l11.1-8.485
						C226.579,188.616,227.768,191.585,227.469,194.935"/>
				</g>
			</g>
			<g enable-background="new    ">
				<defs>
					<path id="SVGID_43_" enable-background="new    " d="M396.055,377.448c-3.7,2.829-7.4,5.657-11.1,8.485
						c-3.778,2.888-8.028,4.573-12.754,5.047c-0.177,0.017-0.354,0.033-0.529,0.046c-7.26,0.552-14.167-2.155-20.722-8.127
						c-7.153-6.512-10.606-14.126-10.368-22.841c0.209-7.411,2.986-14.133,8.336-20.178c1.53-1.729,3.148-3.246,4.855-4.551
						l11.1-8.485c-1.707,1.305-3.325,2.822-4.854,4.551c-5.351,6.044-8.126,12.767-8.336,20.178
						c-0.239,8.715,3.214,16.329,10.368,22.841c6.555,5.973,13.461,8.679,20.722,8.127c0.176-0.013,0.353-0.029,0.529-0.046
						C388.027,382.022,392.277,380.336,396.055,377.448z"/>
				</defs>
				<clipPath id="SVGID_44_">
					<use xlink:href="#SVGID_43_"  overflow="visible"/>
				</clipPath>
				<g clip-path="url(#SVGID_44_)" enable-background="new    ">
					<path fill="#008500" d="M396.055,377.448l-11.1,8.485c-3.778,2.888-8.028,4.573-12.754,5.047
						c-0.177,0.017-0.354,0.033-0.529,0.046c-7.26,0.552-14.167-2.155-20.722-8.127c-7.153-6.512-10.606-14.126-10.368-22.841
						c0.209-7.411,2.986-14.133,8.336-20.178c1.53-1.729,3.148-3.246,4.855-4.551l11.1-8.485c-1.707,1.305-3.325,2.822-4.854,4.551
						c-5.351,6.044-8.126,12.767-8.336,20.178c-0.239,8.715,3.214,16.329,10.368,22.841c6.555,5.973,13.461,8.679,20.722,8.127
						c0.176-0.013,0.353-0.029,0.529-0.046C388.027,382.022,392.277,380.336,396.055,377.448"/>
				</g>
			</g>
			<g>
				<path fill="#00F000" d="M380.428,320.945c7.982-0.606,15.359,2.172,22.13,8.333c6.193,5.64,9.426,12.388,9.686,20.227
					c0.216,5.728-1.369,10.772-4.756,15.124l-13.192-12.021c1.43-2.365,2.009-4.64,1.734-6.831
					c-0.273-2.191-1.376-4.177-3.327-5.956c-2.281-2.077-4.729-3.017-7.351-2.817c-0.995,0.076-2.014,0.315-3.059,0.719
					c-3.097,1.154-5.959,3.218-8.595,6.201c-2.8,3.166-4.536,6.321-5.193,9.458c-0.899,4.109,0.146,7.526,3.135,10.251
					c2.086,1.9,4.288,2.761,6.606,2.584c2.232-0.169,4.572-1.302,7.02-3.397l13.486,12.285c-4.418,4.332-9.565,6.801-15.451,7.391
					c-0.177,0.017-0.354,0.033-0.529,0.046c-7.26,0.552-14.167-2.155-20.722-8.127c-7.154-6.512-10.607-14.126-10.368-22.841
					c0.209-7.411,2.985-14.133,8.336-20.178c5.474-6.187,12.082-9.66,19.815-10.399C380.032,320.977,380.23,320.96,380.428,320.945z
					"/>
			</g>
			<g enable-background="new    ">
				<defs>
					<path id="SVGID_45_" enable-background="new    " d="M196.978,194.701c3.7-2.828,7.4-5.657,11.1-8.485
						c1.993-1.523,4.054-2.531,6.186-3.024c0.55-0.13,1.093-0.216,1.631-0.256c2.843-0.216,5.512,0.813,8.01,3.092l-11.1,8.485
						c-2.498-2.279-5.167-3.309-8.01-3.092c-0.538,0.041-1.081,0.126-1.63,0.256C201.032,192.17,198.971,193.177,196.978,194.701z"
						/>
				</defs>
				<clipPath id="SVGID_46_">
					<use xlink:href="#SVGID_45_"  overflow="visible"/>
				</clipPath>
				<g clip-path="url(#SVGID_46_)" enable-background="new    ">
					<path fill="#008500" d="M223.904,186.028l-11.1,8.485c-2.498-2.279-5.167-3.309-8.01-3.092
						c-0.538,0.041-1.081,0.126-1.63,0.256c-2.132,0.493-4.193,1.5-6.186,3.024l11.1-8.485c1.993-1.523,4.054-2.531,6.186-3.024
						c0.55-0.13,1.093-0.216,1.631-0.256C218.738,182.719,221.406,183.749,223.904,186.028"/>
				</g>
			</g>
			<g>
				<polygon fill="#008000" points="191.841,168.143 180.741,176.628 167.548,164.607 178.648,156.123 				"/>
			</g>
			<g>
				<polygon fill="#00F000" points="337.431,271.884 374.212,305.395 364.902,315.922 341.636,294.73 336.903,300.084 
					357.984,319.293 349.072,329.382 327.98,310.164 322.342,316.534 346.227,338.295 336.558,349.234 299.158,315.155 				"/>
			</g>
			<g>
				<polygon fill="#008000" points="336.558,349.234 325.458,357.719 288.058,323.64 299.158,315.155 				"/>
			</g>
			<g>
				<polygon fill="#008000" points="299.158,315.155 288.058,323.64 326.331,280.369 337.431,271.884 				"/>
			</g>
			<g enable-background="new    ">
				<defs>
					<path id="SVGID_47_" enable-background="new    " d="M217.696,209.652c-3.7,2.828-7.4,5.656-11.1,8.485
						c1.524-1.166,3.086-2.654,4.686-4.465c3.09-3.481,4.779-6.901,5.087-10.252l11.1-8.485c-0.308,3.351-1.997,6.771-5.087,10.252
						C220.782,206.999,219.221,208.487,217.696,209.652z"/>
				</defs>
				<clipPath id="SVGID_48_">
					<use xlink:href="#SVGID_47_"  overflow="visible"/>
				</clipPath>
				<g clip-path="url(#SVGID_48_)" enable-background="new    ">
					<path fill="#008500" d="M217.696,209.652l-11.1,8.485c1.524-1.166,3.086-2.654,4.686-4.465
						c3.09-3.481,4.779-6.901,5.087-10.252l11.1-8.485c-0.308,3.351-1.997,6.771-5.087,10.252
						C220.782,206.999,219.221,208.487,217.696,209.652"/>
				</g>
			</g>
			<g enable-background="new    ">
				<defs>
					<path id="SVGID_49_" enable-background="new    " d="M150.592,152.495c3.7-2.829,7.4-5.657,11.1-8.485
						c1.579-1.207,3.229-2.131,4.953-2.773c1.045-0.403,2.064-0.643,3.06-0.718c2.622-0.199,5.07,0.74,7.351,2.817
						c1.949,1.77,3.053,3.755,3.328,5.956c0.274,2.191-0.305,4.465-1.735,6.831l-11.1,8.485c1.43-2.366,2.008-4.64,1.735-6.831
						c-0.274-2.2-1.378-4.186-3.328-5.956c-2.281-2.078-4.728-3.017-7.351-2.817c-0.995,0.076-2.014,0.315-3.06,0.718
						C153.822,150.364,152.172,151.288,150.592,152.495z"/>
				</defs>
				<clipPath id="SVGID_50_">
					<use xlink:href="#SVGID_49_"  overflow="visible"/>
				</clipPath>
				<g clip-path="url(#SVGID_50_)" enable-background="new    ">
					<path fill="#008500" d="M178.648,156.123l-11.1,8.485c1.43-2.366,2.008-4.64,1.735-6.831c-0.274-2.2-1.378-4.186-3.328-5.956
						c-2.281-2.078-4.728-3.017-7.351-2.817c-0.995,0.076-2.014,0.315-3.06,0.718c-1.723,0.642-3.374,1.566-4.953,2.773l11.1-8.485
						c1.579-1.207,3.229-2.131,4.953-2.773c1.045-0.403,2.064-0.643,3.06-0.718c2.622-0.199,5.07,0.74,7.351,2.817
						c1.949,1.77,3.053,3.755,3.328,5.956C180.657,151.483,180.079,153.756,178.648,156.123"/>
				</g>
			</g>
			<g>
				<polygon fill="#008000" points="293.895,310.364 282.795,318.849 249.491,288.499 260.591,280.014 				"/>
			</g>
			<g>
				<polygon fill="#008000" points="260.591,280.014 249.491,288.499 287.764,245.228 298.864,236.743 				"/>
			</g>
			<g>
				<polygon fill="#00F000" points="298.864,236.743 312.38,249.061 284.034,281.115 303.823,299.146 293.895,310.364 
					260.591,280.014 				"/>
			</g>
			<g enable-background="new    ">
				<defs>
					<path id="SVGID_51_" enable-background="new    " d="M168.69,167.087c-3.7,2.828-7.4,5.657-11.1,8.485
						c0.308-0.235,0.617-0.486,0.928-0.752l11.1-8.485C169.308,166.601,168.998,166.852,168.69,167.087z"/>
				</defs>
				<clipPath id="SVGID_52_">
					<use xlink:href="#SVGID_51_"  overflow="visible"/>
				</clipPath>
				<g clip-path="url(#SVGID_52_)" enable-background="new    ">
					<path fill="#008500" d="M168.69,167.087l-11.1,8.485c0.308-0.235,0.617-0.486,0.928-0.752l11.1-8.485
						C169.308,166.601,168.998,166.852,168.69,167.087"/>
				</g>
			</g>
			<g>
				<polygon fill="#00F000" points="260.298,201.602 273.813,213.919 245.459,245.974 265.247,264.006 255.329,275.223 
					222.016,244.875 				"/>
			</g>
			<g>
				<polygon fill="#008000" points="255.329,275.223 244.229,283.708 210.916,253.359 222.016,244.875 				"/>
			</g>
			<g>
				<polygon fill="#008000" points="222.016,244.875 210.916,253.359 249.198,210.087 260.298,201.602 				"/>
			</g>
			<g enable-background="new    ">
				<defs>
					<path id="SVGID_53_" enable-background="new    " d="M230.375,223.159c-3.7,2.828-7.4,5.657-11.1,8.485
						c-4.279,3.271-8.987,5.192-14.125,5.758c-0.287,0.03-0.574,0.057-0.859,0.078c-7.961,0.605-15.337-2.192-22.14-8.383
						c-7.341-6.686-10.99-14.401-10.929-23.129c0.035-7.255,2.793-13.976,8.275-20.172c1.785-2.018,3.631-3.756,5.54-5.216
						c3.7-2.828,7.4-5.656,11.1-8.485c-1.909,1.459-3.756,3.198-5.54,5.216c-5.482,6.196-8.241,12.917-8.275,20.172
						c-0.062,8.729,3.588,16.443,10.929,23.129c6.802,6.191,14.179,8.988,22.14,8.383c0.285-0.021,0.572-0.048,0.859-0.078
						C221.388,228.351,226.096,226.43,230.375,223.159z"/>
				</defs>
				<clipPath id="SVGID_54_">
					<use xlink:href="#SVGID_53_"  overflow="visible"/>
				</clipPath>
				<g clip-path="url(#SVGID_54_)" enable-background="new    ">
					<path fill="#008500" d="M230.375,223.159l-11.1,8.485c-4.279,3.271-8.987,5.192-14.125,5.758
						c-0.287,0.03-0.574,0.057-0.859,0.078c-7.961,0.605-15.337-2.192-22.14-8.383c-7.341-6.686-10.99-14.401-10.929-23.129
						c0.035-7.255,2.793-13.976,8.275-20.172c1.785-2.018,3.631-3.756,5.54-5.216l11.1-8.485c-1.909,1.459-3.756,3.198-5.54,5.216
						c-5.482,6.196-8.241,12.917-8.275,20.172c-0.062,8.729,3.588,16.443,10.929,23.129c6.802,6.191,14.179,8.988,22.14,8.383
						c0.285-0.021,0.572-0.048,0.859-0.078C221.388,228.351,226.096,226.43,230.375,223.159"/>
				</g>
			</g>
			<g>
				<path fill="#00F000" d="M243.805,193.908c1.185,8.705-1.557,16.826-8.208,24.352c-5.577,6.293-12.025,9.851-19.347,10.657
					c-0.287,0.03-0.574,0.057-0.859,0.078c-7.961,0.605-15.338-2.192-22.14-8.383c-7.341-6.686-10.99-14.401-10.929-23.129
					c0.034-7.255,2.793-13.976,8.275-20.172c5.911-6.685,12.504-10.303,19.781-10.856c0.729-0.056,1.464-0.081,2.207-0.074
					c7.555,0.086,14.587,3.102,21.113,9.038C239.48,180.687,242.85,186.854,243.805,193.908z M227.469,194.935
					c0.299-3.35-0.89-6.319-3.564-8.907c-2.498-2.279-5.167-3.309-8.01-3.092c-0.538,0.041-1.081,0.126-1.631,0.256
					c-3.445,0.797-6.703,2.935-9.791,6.426c-3.735,4.227-5.598,8.293-5.578,12.208c0.017,2.951,1.309,5.601,3.886,7.947
					c2.43,2.212,5.002,3.215,7.715,3.009c3.7-0.281,7.662-2.811,11.886-7.594C225.472,201.706,227.161,198.286,227.469,194.935"/>
			</g>
			<g enable-background="new    ">
				<defs>
					<path id="SVGID_55_" enable-background="new    " d="M180.419,180.953c-0.167,0.127-0.389,0.297-0.555,0.424
						c-3.516,2.687-7.03,5.374-10.545,8.061c-3.783,2.892-8.042,4.577-12.765,5.058c-0.177,0.017-0.353,0.033-0.529,0.046
						c-7.26,0.552-14.167-2.156-20.723-8.136c-7.153-6.513-10.607-14.126-10.368-22.842c0.211-7.402,2.987-14.125,8.337-20.169
						c1.531-1.732,3.15-3.251,4.857-4.557c3.7-2.828,7.4-5.657,11.1-8.485c-1.708,1.305-3.327,2.824-4.857,4.557
						c-5.351,6.044-8.126,12.767-8.337,20.169c-0.239,8.715,3.215,16.329,10.368,22.842c6.556,5.98,13.462,8.688,20.722,8.136
						c0.177-0.013,0.353-0.029,0.529-0.046C172.377,185.529,176.636,183.845,180.419,180.953z"/>
				</defs>
				<clipPath id="SVGID_56_">
					<use xlink:href="#SVGID_55_"  overflow="visible"/>
				</clipPath>
				<g clip-path="url(#SVGID_56_)" enable-background="new    ">
					<path fill="#008500" d="M180.419,180.953l-11.1,8.485c-3.783,2.892-8.042,4.577-12.765,5.058
						c-0.177,0.017-0.353,0.033-0.529,0.046c-7.26,0.552-14.167-2.156-20.723-8.136c-7.153-6.513-10.607-14.126-10.368-22.842
						c0.211-7.402,2.987-14.125,8.337-20.169c1.531-1.732,3.15-3.251,4.857-4.557l11.1-8.485c-1.708,1.306-3.327,2.825-4.857,4.557
						c-5.351,6.044-8.126,12.767-8.337,20.169c-0.239,8.715,3.215,16.329,10.368,22.842c6.556,5.98,13.462,8.688,20.722,8.136
						c0.177-0.013,0.353-0.029,0.529-0.046C172.377,185.529,176.636,183.845,180.419,180.953"/>
				</g>
			</g>
			<g>
				<path fill="#00F000" d="M164.782,124.459c7.981-0.606,15.357,2.164,22.128,8.333c6.193,5.64,9.424,12.379,9.685,20.218
					c0.216,5.729-1.37,10.773-4.755,15.133l-13.192-12.021c1.43-2.366,2.009-4.64,1.735-6.831c-0.274-2.2-1.378-4.186-3.328-5.956
					c-2.281-2.078-4.729-3.017-7.351-2.817c-0.995,0.076-2.015,0.315-3.06,0.718c-3.097,1.154-5.959,3.218-8.595,6.201
					c-2.799,3.165-4.536,6.321-5.193,9.458c-0.899,4.109,0.146,7.526,3.135,10.243c2.088,1.905,4.291,2.768,6.609,2.592
					c2.231-0.169,4.57-1.302,7.017-3.396l13.486,12.285c-4.417,4.332-9.574,6.792-15.451,7.391
					c-0.177,0.017-0.353,0.033-0.529,0.046c-7.26,0.552-14.166-2.156-20.722-8.136c-7.153-6.513-10.607-14.126-10.368-22.842
					c0.211-7.402,2.987-14.125,8.337-20.169c5.473-6.196,12.081-9.66,19.815-10.398
					C164.385,124.492,164.584,124.475,164.782,124.459z"/>
			</g>
		</g>
		<g enable-background="new    ">
			<g enable-background="new    ">
				<defs>
					<path id="SVGID_57_" enable-background="new    " d="M193.182,285.656c-0.925,0.707-1.85,1.414-2.775,2.121
						c-2.774,2.121-5.55,4.243-8.325,6.364c0.453-0.346,0.904-0.729,1.353-1.149l11.1-8.485
						C194.085,284.927,193.635,285.31,193.182,285.656z"/>
				</defs>
				<clipPath id="SVGID_58_">
					<use xlink:href="#SVGID_57_"  overflow="visible"/>
				</clipPath>
				<g clip-path="url(#SVGID_58_)" enable-background="new    ">
					<path fill="#008500" d="M193.182,285.656l-11.1,8.485c0.453-0.346,0.904-0.729,1.353-1.149l11.1-8.485
						C194.085,284.927,193.634,285.31,193.182,285.656"/>
				</g>
			</g>
			<g enable-background="new    ">
				<defs>
					<path id="SVGID_59_" enable-background="new    " d="M148.132,263.841l-11.1,8.485c0.658-2.896-0.108-5.397-2.308-7.514
						l11.1-8.485C148.024,258.444,148.79,260.945,148.132,263.841z"/>
				</defs>
				<clipPath id="SVGID_60_">
					<use xlink:href="#SVGID_59_"  overflow="visible"/>
				</clipPath>
				<g clip-path="url(#SVGID_60_)" enable-background="new    ">
					<path fill="#008500" d="M148.132,263.841l-11.1,8.485c0.658-2.896-0.108-5.397-2.308-7.514l11.1-8.485
						C148.024,258.444,148.79,260.945,148.132,263.841"/>
				</g>
			</g>
			<g>
				<polygon fill="#008000" points="176.008,300.088 164.908,308.573 162.34,306.236 173.44,297.751 				"/>
			</g>
			<g>
				<polygon fill="#008000" points="173.44,297.751 162.34,306.236 159.125,303.304 170.225,294.819 				"/>
			</g>
			<g>
				<polygon fill="#008000" points="170.225,294.819 159.125,303.304 156.361,300.785 167.461,292.3 				"/>
			</g>
			<g>
				<polygon fill="#008000" points="167.461,292.3 156.361,300.785 154.802,299.36 165.902,290.875 				"/>
			</g>
			<g>
				<polygon fill="#008000" points="165.902,290.875 154.802,299.36 162.655,290.485 173.755,282 				"/>
			</g>
			<g enable-background="new    ">
				<defs>
					<path id="SVGID_61_" enable-background="new    " d="M122.741,265.377c3.7-2.828,7.4-5.657,11.1-8.485
						c1.477-1.128,2.844-1.917,4.104-2.366c0.705-0.252,1.398-0.403,2.079-0.455c2.046-0.156,3.984,0.594,5.801,2.256l-11.1,8.485
						c-1.817-1.663-3.755-2.412-5.801-2.256c-0.682,0.052-1.374,0.203-2.079,0.455C125.585,263.46,124.217,264.249,122.741,265.377z
						"/>
				</defs>
				<clipPath id="SVGID_62_">
					<use xlink:href="#SVGID_61_"  overflow="visible"/>
				</clipPath>
				<g clip-path="url(#SVGID_62_)" enable-background="new    ">
					<path fill="#008500" d="M145.824,256.328l-11.1,8.485c-1.817-1.663-3.755-2.412-5.801-2.256
						c-0.682,0.052-1.374,0.203-2.079,0.455c-1.26,0.449-2.627,1.238-4.104,2.366l11.1-8.485c1.477-1.128,2.844-1.917,4.104-2.366
						c0.705-0.252,1.398-0.403,2.079-0.455C142.07,253.916,144.007,254.665,145.824,256.328"/>
				</g>
			</g>
			<g enable-background="new    ">
				<defs>
					<path id="SVGID_63_" enable-background="new    " d="M106.704,226.09l-11.1,8.485c0.659-2.887-0.108-5.397-2.307-7.505
						l11.1-8.485C106.596,220.693,107.362,223.203,106.704,226.09z"/>
				</defs>
				<clipPath id="SVGID_64_">
					<use xlink:href="#SVGID_63_"  overflow="visible"/>
				</clipPath>
				<g clip-path="url(#SVGID_64_)" enable-background="new    ">
					<path fill="#008500" d="M106.704,226.09l-11.1,8.485c0.659-2.887-0.108-5.397-2.307-7.505l11.1-8.485
						C106.596,220.693,107.362,223.203,106.704,226.09"/>
				</g>
			</g>
			<g enable-background="new    ">
				<defs>
					<path id="SVGID_65_" enable-background="new    " d="M81.312,227.632c3.7-2.828,7.4-5.656,11.1-8.485
						c1.477-1.128,2.845-1.918,4.104-2.372c0.703-0.251,1.393-0.402,2.071-0.454c2.05-0.156,3.99,0.599,5.81,2.264l-11.1,8.485
						c-1.82-1.665-3.76-2.419-5.81-2.264c-0.678,0.052-1.369,0.203-2.071,0.454C84.156,225.713,82.788,226.503,81.312,227.632z"/>
				</defs>
				<clipPath id="SVGID_66_">
					<use xlink:href="#SVGID_65_"  overflow="visible"/>
				</clipPath>
				<g clip-path="url(#SVGID_66_)" enable-background="new    ">
					<path fill="#008500" d="M104.397,218.585l-11.1,8.485c-1.82-1.665-3.76-2.419-5.81-2.264c-0.678,0.052-1.369,0.203-2.071,0.454
						c-1.26,0.453-2.628,1.243-4.104,2.372l11.1-8.485c1.477-1.128,2.845-1.918,4.104-2.372c0.703-0.251,1.393-0.402,2.071-0.454
						C100.637,216.166,102.577,216.92,104.397,218.585"/>
				</g>
			</g>
			<g enable-background="new    ">
				<defs>
					<path id="SVGID_67_" enable-background="new    " d="M136.385,279.416c-3.7,2.828-7.4,5.656-11.1,8.485
						c1.68-1.284,3.452-2.979,5.316-5.086c3.625-4.103,5.771-7.602,6.431-10.488l11.1-8.485c-0.66,2.886-2.806,6.386-6.431,10.488
						C139.837,276.436,138.064,278.132,136.385,279.416z"/>
				</defs>
				<clipPath id="SVGID_68_">
					<use xlink:href="#SVGID_67_"  overflow="visible"/>
				</clipPath>
				<g clip-path="url(#SVGID_68_)" enable-background="new    ">
					<path fill="#008500" d="M136.385,279.416l-11.1,8.485c1.68-1.284,3.452-2.979,5.316-5.086
						c3.625-4.103,5.771-7.602,6.431-10.488l11.1-8.485c-0.66,2.886-2.806,6.386-6.431,10.488
						C139.837,276.436,138.064,278.132,136.385,279.416"/>
				</g>
			</g>
			<g enable-background="new    ">
				<defs>
					<path id="SVGID_69_" enable-background="new    " d="M94.952,241.671c-3.7,2.829-7.399,5.657-11.1,8.485
						c1.681-1.285,3.455-2.983,5.32-5.093c3.625-4.103,5.773-7.593,6.431-10.488l11.1-8.485c-0.659,2.895-2.806,6.385-6.431,10.488
						C98.407,238.688,96.634,240.386,94.952,241.671z"/>
				</defs>
				<clipPath id="SVGID_70_">
					<use xlink:href="#SVGID_69_"  overflow="visible"/>
				</clipPath>
				<g clip-path="url(#SVGID_70_)" enable-background="new    ">
					<path fill="#008500" d="M94.952,241.671l-11.1,8.485c1.681-1.285,3.455-2.983,5.32-5.093c3.625-4.103,5.773-7.593,6.431-10.488
						l11.1-8.485c-0.659,2.895-2.806,6.385-6.431,10.488C98.407,238.688,96.634,240.386,94.952,241.671"/>
				</g>
			</g>
			<g>
				<path fill="#00F000" d="M173.755,282c2.368,2.05,4.416,3.518,6.125,4.414c1.72,0.895,3.601,1.438,5.663,1.63
					c0.595,0.071,1.187,0.083,1.775,0.039c2.456-0.187,4.861-1.375,7.216-3.576l10.332,9.419l-37.237,42.095l-12.957-11.807
					l21.335-24.127l-2.567-2.337l-3.215-2.932l-2.764-2.52l-1.56-1.425L173.755,282z"/>
			</g>
			<g>
				<polygon fill="#008000" points="167.629,336.022 156.529,344.507 143.573,332.7 154.673,324.215 				"/>
			</g>
			<g>
				<polygon fill="#008000" points="154.673,324.215 143.573,332.7 164.908,308.573 176.008,300.088 				"/>
			</g>
			<g enable-background="new    ">
				<defs>
					<path id="SVGID_71_" enable-background="new    " d="M147.628,290.538c-3.7,2.828-7.4,5.656-11.1,8.485
						c-3.921,2.997-8.072,4.848-12.45,5.552c-0.689,0.113-1.374,0.195-2.051,0.246c-6.273,0.477-12.004-1.658-17.205-6.4
						c-5.635-5.129-8.358-11.335-8.176-18.61c0.17-6.828,3.074-13.435,8.719-19.823c1.855-2.095,3.771-3.898,5.75-5.41
						c2.96-2.263,5.92-4.525,8.88-6.788c0.74-0.565,1.479-1.131,2.22-1.697c-1.979,1.512-3.895,3.315-5.749,5.41
						c-5.645,6.388-8.549,12.995-8.719,19.823c-0.182,7.275,2.541,13.481,8.176,18.61c5.202,4.742,10.932,6.877,17.206,6.4
						c0.677-0.051,1.362-0.133,2.051-0.246C139.556,295.386,143.708,293.535,147.628,290.538z"/>
				</defs>
				<clipPath id="SVGID_72_">
					<use xlink:href="#SVGID_71_"  overflow="visible"/>
				</clipPath>
				<g clip-path="url(#SVGID_72_)" enable-background="new    ">
					<path fill="#008500" d="M147.628,290.538l-11.1,8.485c-3.921,2.997-8.072,4.848-12.45,5.552
						c-0.689,0.113-1.374,0.195-2.051,0.246c-6.273,0.477-12.004-1.658-17.205-6.4c-5.635-5.129-8.358-11.335-8.176-18.61
						c0.17-6.828,3.074-13.435,8.719-19.823c1.855-2.095,3.771-3.898,5.75-5.41l11.1-8.485c-1.978,1.512-3.895,3.315-5.749,5.41
						c-5.645,6.388-8.549,12.995-8.719,19.823c-0.182,7.275,2.541,13.481,8.176,18.61c5.202,4.742,10.932,6.877,17.206,6.4
						c0.677-0.051,1.362-0.133,2.051-0.246C139.556,295.386,143.708,293.535,147.628,290.538"/>
				</g>
			</g>
			<g>
				<path fill="#00F000" d="M154.336,246.903c5.499,5.015,8.103,11.186,7.804,18.505c-0.273,6.853-3.166,13.397-8.68,19.632
					c-5.566,6.301-11.667,9.985-18.282,11.049c-0.689,0.113-1.374,0.195-2.051,0.246c-6.273,0.477-12.003-1.658-17.206-6.4
					c-5.635-5.129-8.358-11.335-8.176-18.61c0.17-6.828,3.074-13.435,8.719-19.823c5.725-6.465,12.035-10.156,18.948-11.073
					c0.421-0.055,0.84-0.098,1.256-0.13C143.079,239.812,148.962,242.01,154.336,246.903z M148.132,263.841
					c0.658-2.896-0.108-5.397-2.308-7.514c-1.817-1.663-3.754-2.412-5.801-2.256c-0.681,0.052-1.374,0.203-2.079,0.455
					c-2.832,1.009-6.208,3.737-10.139,8.174c-6.823,7.716-7.987,13.612-3.508,17.696c1.631,1.488,3.447,2.156,5.445,2.004
					c3.442-0.262,7.428-2.953,11.958-8.072C145.326,270.227,147.473,266.728,148.132,263.841"/>
			</g>
			<g enable-background="new    ">
				<defs>
					<path id="SVGID_73_" enable-background="new    " d="M106.205,252.787c-3.7,2.829-7.4,5.657-11.1,8.485
						c-3.92,2.996-8.071,4.85-12.454,5.561c-0.683,0.11-1.36,0.191-2.031,0.243c-6.275,0.477-12.019-1.652-17.226-6.397
						c-5.635-5.129-8.358-11.336-8.177-18.62c0.17-6.828,3.074-13.435,8.72-19.813c1.854-2.093,3.769-3.896,5.746-5.407l0,0
						c3.7-2.828,7.4-5.656,11.1-8.485c-1.978,1.512-3.893,3.314-5.747,5.407c-5.646,6.378-8.55,12.986-8.72,19.813
						c-0.181,7.284,2.542,13.491,8.177,18.62c5.207,4.746,10.951,6.874,17.227,6.397c0.671-0.051,1.348-0.132,2.03-0.243
						C98.135,257.637,102.285,255.784,106.205,252.787z"/>
				</defs>
				<clipPath id="SVGID_74_">
					<use xlink:href="#SVGID_73_"  overflow="visible"/>
				</clipPath>
				<g clip-path="url(#SVGID_74_)" enable-background="new    ">
					<path fill="#008500" d="M106.205,252.787l-11.1,8.485c-3.92,2.996-8.071,4.85-12.454,5.561c-0.683,0.11-1.36,0.191-2.031,0.243
						c-6.275,0.477-12.019-1.652-17.226-6.397c-5.635-5.129-8.358-11.336-8.177-18.62c0.17-6.828,3.074-13.435,8.72-19.813
						c1.854-2.093,3.769-3.896,5.746-5.407l11.101-8.485c-1.978,1.512-3.894,3.314-5.747,5.407
						c-5.646,6.378-8.55,12.986-8.72,19.813c-0.181,7.284,2.542,13.491,8.177,18.62c5.207,4.746,10.951,6.874,17.227,6.397
						c0.671-0.051,1.348-0.132,2.03-0.243C98.135,257.637,102.285,255.784,106.205,252.787"/>
				</g>
			</g>
			<g>
				<path fill="#00F000" d="M112.909,209.161c5.499,5.015,8.102,11.178,7.804,18.505c-0.273,6.854-3.166,13.398-8.679,19.633
					c-5.568,6.293-11.66,9.976-18.283,11.05c-0.683,0.11-1.359,0.191-2.03,0.243c-6.276,0.477-12.02-1.652-17.227-6.397
					c-5.634-5.129-8.357-11.336-8.177-18.62c0.17-6.828,3.074-13.435,8.72-19.813c5.725-6.465,12.044-10.157,18.948-11.074
					c0.429-0.056,0.855-0.1,1.278-0.132C101.664,202.068,107.541,204.273,112.909,209.161z M106.704,226.09
					c0.659-2.887-0.108-5.397-2.307-7.505c-1.82-1.665-3.76-2.419-5.81-2.264c-0.679,0.052-1.368,0.203-2.071,0.454
					c-2.83,1.018-6.208,3.737-10.13,8.174c-6.823,7.716-7.995,13.612-3.516,17.706c1.631,1.485,3.446,2.151,5.444,2
					c3.442-0.261,7.429-2.952,11.958-8.076C103.898,232.476,106.045,228.985,106.704,226.09"/>
			</g>
		</g>
	</g>
</g>
</svg>
